<?xml version="1.0" standalone="no"?><!DOCTYPE svg PUBLIC "-//W3C//DTD SVG 1.1//EN" "http://www.w3.org/Graphics/SVG/1.1/DTD/svg11.dtd"><svg t="1686753401528" class="icon" viewBox="0 0 1024 1024" version="1.1" xmlns="http://www.w3.org/2000/svg" p-id="1604" xmlns:xlink="http://www.w3.org/1999/xlink" width="128" height="128"><path d="M544 128a32 32 0 0 1 32 32V448h288a32 32 0 0 1 32 32v64a32 32 0 0 1-32 32H576v288a32 32 0 0 1-32 32h-64a32 32 0 0 1-32-32V576H160a32 32 0 0 1-32-32v-64a32 32 0 0 1 32-32H448V160a32 32 0 0 1 32-32h64z" fill="#4E5969" p-id="1605"></path></svg>