<?xml version="1.0" standalone="no"?><!DOCTYPE svg PUBLIC "-//W3C//DTD SVG 1.1//EN" "http://www.w3.org/Graphics/SVG/1.1/DTD/svg11.dtd"><svg t="1686753434909" class="icon" viewBox="0 0 1024 1024" version="1.1" xmlns="http://www.w3.org/2000/svg" p-id="1748" xmlns:xlink="http://www.w3.org/1999/xlink" width="128" height="128"><path d="M494.933333 170.666667a324.266667 324.266667 0 0 1 324.266667 324.266666c0 85.947733-33.450667 164.078933-87.995733 222.1056l72.123733 72.157867a34.133333 34.133333 0 0 1-45.056 51.0976l-3.208533-2.833067-75.776-75.741866A322.7648 322.7648 0 0 1 494.933333 819.2a324.266667 324.266667 0 0 1 0-648.533333z m0 68.266666a256 256 0 1 0 0 512 256 256 0 0 0 0-512z" fill="#333333" p-id="1749"></path></svg>